<?xml version="1.0" standalone="no"?>
<!DOCTYPE svg PUBLIC "-//W3C//DTD SVG 20010904//EN"
 "http://www.w3.org/TR/2001/REC-SVG-20010904/DTD/svg10.dtd">
<svg version="1.0" xmlns="http://www.w3.org/2000/svg"
 width="240.000000pt" height="64.000000pt" viewBox="0 0 240.000000 64.000000"
 preserveAspectRatio="xMidYMid meet">
<metadata>
Created by potrace 1.10, written by Peter Selinger 2001-2011
</metadata>
<g transform="translate(0.000000,64.000000) scale(0.100000,-0.100000)"
fill="#000000" stroke="none">
<path d="M2185 581 c-95 -24 -208 -113 -325 -259 -35 -45 -66 -80 -67 -79 -4
5 68 195 92 240 14 26 21 47 16 47 -11 0 -97 -98 -165 -187 -26 -35 -49 -63
-51 -63 -2 0 8 25 22 56 61 133 -18 240 -138 187 -24 -11 -50 -27 -58 -36 -12
-15 -16 -14 -41 13 -32 34 -70 39 -125 16 -31 -13 -38 -13 -67 2 -48 24 -151
21 -210 -6 -100 -44 -158 -109 -158 -176 0 -49 13 -70 49 -86 54 -22 131 13
182 83 46 64 36 117 -24 117 -60 0 -137 -65 -137 -116 0 -32 24 -64 38 -49 4
4 1 10 -5 12 -39 14 12 104 73 129 42 18 64 9 64 -25 0 -86 -153 -178 -203
-123 -37 41 -14 106 59 171 102 90 276 93 316 6 23 -50 -31 -116 -80 -98 -23
9 -22 9 17 66 22 31 37 57 32 57 -15 0 -77 -75 -140 -168 -63 -94 -105 -129
-165 -139 -25 -4 -44 0 -63 12 l-27 18 23 9 c12 4 21 14 19 20 -7 19 -39 16
-52 -4 -8 -13 -5 -22 13 -42 30 -32 62 -39 114 -26 65 17 131 67 167 127 24
40 38 53 56 53 33 0 37 -13 20 -70 -17 -59 -8 -100 27 -119 27 -14 83 2 71 20
-4 8 -9 8 -17 0 -16 -16 -45 -13 -55 6 -6 11 -4 35 6 71 12 43 13 58 3 73 -9
16 -8 21 6 26 57 20 79 76 47 121 -19 28 -17 31 29 39 50 8 86 -4 96 -30 6
-17 1 -30 -22 -60 -41 -51 -50 -140 -18 -174 47 -50 117 -33 171 40 53 72 61
145 20 167 -34 18 -79 -19 -60 -49 12 -21 43 -5 37 19 -3 13 0 20 9 20 20 0
28 -46 15 -90 -15 -51 -90 -120 -130 -120 -35 0 -61 31 -61 72 0 42 29 108 45
102 9 -4 15 4 17 23 2 21 16 36 52 61 87 58 150 36 148 -54 0 -57 -64 -194
-117 -253 -26 -29 -33 -41 -21 -41 21 0 149 129 210 213 27 36 51 65 53 63 6
-6 -86 -220 -108 -249 -11 -16 -19 -31 -16 -33 9 -9 103 85 199 198 55 66 119
133 142 150 61 45 136 78 179 78 26 0 37 4 37 15 0 16 -17 17 -65 6z"/>
<path d="M590 530 c-19 -10 -69 -24 -110 -31 -66 -10 -80 -16 -112 -49 -48
-48 -51 -89 -10 -130 l29 -28 -47 -78 c-25 -42 -59 -86 -74 -97 -34 -25 -105
-34 -137 -17 l-23 13 22 8 c26 10 29 37 6 46 -11 4 -22 -1 -30 -12 -19 -26
-18 -32 11 -60 31 -32 83 -33 150 -1 59 27 103 74 136 144 18 38 30 51 46 52
12 0 35 12 52 26 17 14 37 24 45 21 16 -6 36 11 36 30 0 22 -51 11 -63 -14 -8
-19 -61 -53 -82 -53 -3 0 6 23 22 52 39 71 115 153 154 164 18 5 34 15 37 22
5 17 -18 14 -58 -8z m-87 -74 c-21 -19 -54 -59 -73 -90 -37 -59 -48 -63 -67
-26 -24 48 20 106 103 135 67 24 78 19 37 -19z"/>
<path d="M2154 338 c-36 -60 -80 -120 -98 -133 -35 -27 -76 -33 -76 -12 0 24
24 43 67 56 60 17 84 71 32 71 -47 0 -129 -70 -129 -109 0 -23 31 -51 56 -51
10 0 30 9 44 20 25 19 25 19 41 -2 13 -16 22 -19 47 -13 38 8 102 76 102 109
0 28 -24 51 -45 42 -23 -8 -19 4 20 61 39 58 42 70 20 70 -8 0 -44 -49 -81
-109z m-74 -41 c0 -13 -58 -52 -66 -44 -5 4 53 57 62 57 2 0 4 -6 4 -13z m130
-10 c0 -24 -50 -91 -81 -107 -34 -19 -23 24 21 79 44 56 60 63 60 28z"/>
<path d="M490 269 c-34 -56 -37 -101 -7 -107 22 -4 56 25 104 91 67 91 58 39
-12 -66 -18 -29 -18 -29 2 -25 12 2 39 30 65 68 47 69 87 95 68 45 -6 -15 -24
-46 -41 -71 -28 -41 -28 -44 -10 -44 14 0 32 18 54 53 39 60 82 103 91 89 3
-5 -6 -25 -20 -46 -31 -45 -30 -89 2 -94 15 -2 33 10 58 39 20 24 36 46 36 51
0 16 -19 8 -24 -10 -8 -25 -52 -65 -65 -61 -7 3 -1 20 15 42 31 46 30 90 -3
95 -14 2 -27 -4 -35 -17 -15 -25 -28 -27 -28 -6 0 26 -29 29 -54 6 -23 -22
-23 -22 -29 -2 -9 34 -32 24 -75 -32 -90 -116 -126 -124 -62 -14 34 58 37 67
20 67 -11 0 -30 -19 -50 -51z"/>
</g>
</svg>
